<svg width="30" height="30" viewBox="0 0 30 30" fill="none" xmlns="http://www.w3.org/2000/svg">
<g id="shopping-bag-01">
<path id="Icon" d="M6.9 3.3L4.95 5.9C4.56377 6.41497 4.37065 6.67246 4.37514 6.88799C4.37903 7.07555 4.46698 7.25144 4.61469 7.36709C4.78442 7.5 5.10628 7.5 5.75 7.5H24.25C24.8937 7.5 25.2156 7.5 25.3853 7.36709C25.533 7.25144 25.621 7.07555 25.6249 6.88799C25.6293 6.67246 25.4362 6.41497 25.05 5.9L23.1 3.3M6.9 3.3C7.12 3.00667 7.23 2.86 7.36941 2.75422C7.49288 2.66053 7.6327 2.59062 7.78173 2.54806C7.95 2.5 8.13333 2.5 8.5 2.5H21.5C21.8667 2.5 22.05 2.5 22.2183 2.54806C22.3673 2.59062 22.5071 2.66053 22.6306 2.75422C22.77 2.86 22.88 3.00667 23.1 3.3M6.9 3.3L4.55 6.43333C4.25317 6.8291 4.10476 7.02698 3.99937 7.2449C3.90586 7.43827 3.83765 7.64289 3.79644 7.8537C3.75 8.09127 3.75 8.33862 3.75 8.83333L3.75 23.5C3.75 24.9001 3.75 25.6002 4.02248 26.135C4.26217 26.6054 4.64462 26.9878 5.11502 27.2275C5.6498 27.5 6.34987 27.5 7.75 27.5L22.25 27.5C23.6501 27.5 24.3502 27.5 24.885 27.2275C25.3554 26.9878 25.7378 26.6054 25.9775 26.135C26.25 25.6002 26.25 24.9001 26.25 23.5V8.83333C26.25 8.33862 26.25 8.09127 26.2036 7.8537C26.1623 7.64289 26.0941 7.43828 26.0006 7.2449C25.8952 7.02699 25.7468 6.8291 25.45 6.43333L23.1 3.3M20 12.5C20 13.8261 19.4732 15.0978 18.5355 16.0355C17.5979 16.9732 16.3261 17.5 15 17.5C13.6739 17.5 12.4021 16.9732 11.4645 16.0355C10.5268 15.0978 10 13.8261 10 12.5" stroke="white" stroke-linecap="round" stroke-linejoin="round"/>
</g>
</svg>
